<?xml version="1.0" standalone="no"?>
<svg xmlns:xlink="http://www.w3.org/1999/xlink" id="wave" style="transform:rotate(180deg); transition: 0.3s" viewBox="0 0 1440 350" version="1.1" xmlns="http://www.w3.org/2000/svg"><defs><linearGradient id="sw-gradient-0" x1="0" x2="0" y1="1" y2="0"><stop stop-color="rgba(32, 162, 158, 1)" offset="0%"/><stop stop-color="rgba(11, 214, 255, 1)" offset="100%"/></linearGradient></defs><path style="transform:translate(0, 0px); opacity:1" fill="url(#sw-gradient-0)" d="M0,245L60,210C120,175,240,105,360,110.8C480,117,600,198,720,204.2C840,210,960,140,1080,93.3C1200,47,1320,23,1440,29.2C1560,35,1680,70,1800,116.7C1920,163,2040,222,2160,210C2280,198,2400,117,2520,75.8C2640,35,2760,35,2880,58.3C3000,82,3120,128,3240,134.2C3360,140,3480,105,3600,105C3720,105,3840,140,3960,163.3C4080,187,4200,198,4320,215.8C4440,233,4560,257,4680,233.3C4800,210,4920,140,5040,140C5160,140,5280,210,5400,204.2C5520,198,5640,117,5760,70C5880,23,6000,12,6120,5.8C6240,0,6360,0,6480,40.8C6600,82,6720,163,6840,169.2C6960,175,7080,105,7200,105C7320,105,7440,175,7560,169.2C7680,163,7800,82,7920,64.2C8040,47,8160,93,8280,99.2C8400,105,8520,70,8580,52.5L8640,35L8640,350L8580,350C8520,350,8400,350,8280,350C8160,350,8040,350,7920,350C7800,350,7680,350,7560,350C7440,350,7320,350,7200,350C7080,350,6960,350,6840,350C6720,350,6600,350,6480,350C6360,350,6240,350,6120,350C6000,350,5880,350,5760,350C5640,350,5520,350,5400,350C5280,350,5160,350,5040,350C4920,350,4800,350,4680,350C4560,350,4440,350,4320,350C4200,350,4080,350,3960,350C3840,350,3720,350,3600,350C3480,350,3360,350,3240,350C3120,350,3000,350,2880,350C2760,350,2640,350,2520,350C2400,350,2280,350,2160,350C2040,350,1920,350,1800,350C1680,350,1560,350,1440,350C1320,350,1200,350,1080,350C960,350,840,350,720,350C600,350,480,350,360,350C240,350,120,350,60,350L0,350Z"/></svg>