<?xml version="1.0" standalone="no"?>
<svg xmlns:xlink="http://www.w3.org/1999/xlink" id="wave" style="transform:rotate(180deg); transition: 0.3s" viewBox="0 0 1440 490" version="1.1" xmlns="http://www.w3.org/2000/svg"><defs><linearGradient id="sw-gradient-0" x1="0" x2="0" y1="1" y2="0"><stop stop-color="rgba(32, 162, 158, 1)" offset="0%"/><stop stop-color="rgba(11, 213.673, 255, 1)" offset="100%"/></linearGradient></defs><path style="transform:translate(0, 0px); opacity:1" fill="url(#sw-gradient-0)" d="M0,343L60,302.2C120,261,240,180,360,138.8C480,98,600,98,720,147C840,196,960,294,1080,294C1200,294,1320,196,1440,155.2C1560,114,1680,131,1800,147C1920,163,2040,180,2160,171.5C2280,163,2400,131,2520,138.8C2640,147,2760,196,2880,212.3C3000,229,3120,212,3240,171.5C3360,131,3480,65,3600,65.3C3720,65,3840,131,3960,138.8C4080,147,4200,98,4320,81.7C4440,65,4560,82,4680,89.8C4800,98,4920,98,5040,138.8C5160,180,5280,261,5400,245C5520,229,5640,114,5760,89.8C5880,65,6000,131,6120,138.8C6240,147,6360,98,6480,81.7C6600,65,6720,82,6840,114.3C6960,147,7080,196,7200,245C7320,294,7440,343,7560,351.2C7680,359,7800,327,7920,326.7C8040,327,8160,359,8280,359.3C8400,359,8520,327,8580,310.3L8640,294L8640,490L8580,490C8520,490,8400,490,8280,490C8160,490,8040,490,7920,490C7800,490,7680,490,7560,490C7440,490,7320,490,7200,490C7080,490,6960,490,6840,490C6720,490,6600,490,6480,490C6360,490,6240,490,6120,490C6000,490,5880,490,5760,490C5640,490,5520,490,5400,490C5280,490,5160,490,5040,490C4920,490,4800,490,4680,490C4560,490,4440,490,4320,490C4200,490,4080,490,3960,490C3840,490,3720,490,3600,490C3480,490,3360,490,3240,490C3120,490,3000,490,2880,490C2760,490,2640,490,2520,490C2400,490,2280,490,2160,490C2040,490,1920,490,1800,490C1680,490,1560,490,1440,490C1320,490,1200,490,1080,490C960,490,840,490,720,490C600,490,480,490,360,490C240,490,120,490,60,490L0,490Z"/><defs><linearGradient id="sw-gradient-1" x1="0" x2="0" y1="1" y2="0"><stop stop-color="rgba(32, 162, 158, 1)" offset="0%"/><stop stop-color="rgba(11, 213.673, 255, 1)" offset="100%"/></linearGradient></defs><path style="transform:translate(0, 50px); opacity:0.9" fill="url(#sw-gradient-1)" d="M0,392L60,343C120,294,240,196,360,187.8C480,180,600,261,720,310.3C840,359,960,376,1080,326.7C1200,278,1320,163,1440,147C1560,131,1680,212,1800,277.7C1920,343,2040,392,2160,400.2C2280,408,2400,376,2520,310.3C2640,245,2760,147,2880,122.5C3000,98,3120,147,3240,179.7C3360,212,3480,229,3600,204.2C3720,180,3840,114,3960,147C4080,180,4200,310,4320,310.3C4440,310,4560,180,4680,122.5C4800,65,4920,82,5040,147C5160,212,5280,327,5400,343C5520,359,5640,278,5760,253.2C5880,229,6000,261,6120,245C6240,229,6360,163,6480,171.5C6600,180,6720,261,6840,269.5C6960,278,7080,212,7200,171.5C7320,131,7440,114,7560,147C7680,180,7800,261,7920,277.7C8040,294,8160,245,8280,245C8400,245,8520,294,8580,318.5L8640,343L8640,490L8580,490C8520,490,8400,490,8280,490C8160,490,8040,490,7920,490C7800,490,7680,490,7560,490C7440,490,7320,490,7200,490C7080,490,6960,490,6840,490C6720,490,6600,490,6480,490C6360,490,6240,490,6120,490C6000,490,5880,490,5760,490C5640,490,5520,490,5400,490C5280,490,5160,490,5040,490C4920,490,4800,490,4680,490C4560,490,4440,490,4320,490C4200,490,4080,490,3960,490C3840,490,3720,490,3600,490C3480,490,3360,490,3240,490C3120,490,3000,490,2880,490C2760,490,2640,490,2520,490C2400,490,2280,490,2160,490C2040,490,1920,490,1800,490C1680,490,1560,490,1440,490C1320,490,1200,490,1080,490C960,490,840,490,720,490C600,490,480,490,360,490C240,490,120,490,60,490L0,490Z"/></svg>