<?xml version="1.0" standalone="no"?>
<svg xmlns:xlink="http://www.w3.org/1999/xlink" id="wave" style="transform:rotate(180deg); transition: 0.3s" viewBox="0 0 1440 240" version="1.1" xmlns="http://www.w3.org/2000/svg"><defs><linearGradient id="sw-gradient-0" x1="0" x2="0" y1="1" y2="0"><stop stop-color="rgba(32, 162, 158, 1)" offset="0%"/><stop stop-color="rgba(11, 213.673, 255, 1)" offset="100%"/></linearGradient></defs><path style="transform:translate(0, 0px); opacity:1" fill="url(#sw-gradient-0)" d="M0,168L60,148C120,128,240,88,360,68C480,48,600,48,720,72C840,96,960,144,1080,144C1200,144,1320,96,1440,76C1560,56,1680,64,1800,72C1920,80,2040,88,2160,84C2280,80,2400,64,2520,68C2640,72,2760,96,2880,104C3000,112,3120,104,3240,84C3360,64,3480,32,3600,32C3720,32,3840,64,3960,68C4080,72,4200,48,4320,40C4440,32,4560,40,4680,44C4800,48,4920,48,5040,68C5160,88,5280,128,5400,120C5520,112,5640,56,5760,44C5880,32,6000,64,6120,68C6240,72,6360,48,6480,40C6600,32,6720,40,6840,56C6960,72,7080,96,7200,120C7320,144,7440,168,7560,172C7680,176,7800,160,7920,160C8040,160,8160,176,8280,176C8400,176,8520,160,8580,152L8640,144L8640,240L8580,240C8520,240,8400,240,8280,240C8160,240,8040,240,7920,240C7800,240,7680,240,7560,240C7440,240,7320,240,7200,240C7080,240,6960,240,6840,240C6720,240,6600,240,6480,240C6360,240,6240,240,6120,240C6000,240,5880,240,5760,240C5640,240,5520,240,5400,240C5280,240,5160,240,5040,240C4920,240,4800,240,4680,240C4560,240,4440,240,4320,240C4200,240,4080,240,3960,240C3840,240,3720,240,3600,240C3480,240,3360,240,3240,240C3120,240,3000,240,2880,240C2760,240,2640,240,2520,240C2400,240,2280,240,2160,240C2040,240,1920,240,1800,240C1680,240,1560,240,1440,240C1320,240,1200,240,1080,240C960,240,840,240,720,240C600,240,480,240,360,240C240,240,120,240,60,240L0,240Z"/><defs><linearGradient id="sw-gradient-1" x1="0" x2="0" y1="1" y2="0"><stop stop-color="rgba(32, 162, 158, 1)" offset="0%"/><stop stop-color="rgba(11, 213.673, 255, 1)" offset="100%"/></linearGradient></defs><path style="transform:translate(0, 50px); opacity:0.9" fill="url(#sw-gradient-1)" d="M0,192L60,168C120,144,240,96,360,92C480,88,600,128,720,152C840,176,960,184,1080,160C1200,136,1320,80,1440,72C1560,64,1680,104,1800,136C1920,168,2040,192,2160,196C2280,200,2400,184,2520,152C2640,120,2760,72,2880,60C3000,48,3120,72,3240,88C3360,104,3480,112,3600,100C3720,88,3840,56,3960,72C4080,88,4200,152,4320,152C4440,152,4560,88,4680,60C4800,32,4920,40,5040,72C5160,104,5280,160,5400,168C5520,176,5640,136,5760,124C5880,112,6000,128,6120,120C6240,112,6360,80,6480,84C6600,88,6720,128,6840,132C6960,136,7080,104,7200,84C7320,64,7440,56,7560,72C7680,88,7800,128,7920,136C8040,144,8160,120,8280,120C8400,120,8520,144,8580,156L8640,168L8640,240L8580,240C8520,240,8400,240,8280,240C8160,240,8040,240,7920,240C7800,240,7680,240,7560,240C7440,240,7320,240,7200,240C7080,240,6960,240,6840,240C6720,240,6600,240,6480,240C6360,240,6240,240,6120,240C6000,240,5880,240,5760,240C5640,240,5520,240,5400,240C5280,240,5160,240,5040,240C4920,240,4800,240,4680,240C4560,240,4440,240,4320,240C4200,240,4080,240,3960,240C3840,240,3720,240,3600,240C3480,240,3360,240,3240,240C3120,240,3000,240,2880,240C2760,240,2640,240,2520,240C2400,240,2280,240,2160,240C2040,240,1920,240,1800,240C1680,240,1560,240,1440,240C1320,240,1200,240,1080,240C960,240,840,240,720,240C600,240,480,240,360,240C240,240,120,240,60,240L0,240Z"/></svg>